<svg width="146" height="28" viewBox="0 0 146 28" fill="none" xmlns="http://www.w3.org/2000/svg">
<path d="M10.5536 8.0431C10.5536 6.84438 9.80372 5.77373 8.67717 5.36408L6.58444 4.60308C6.22667 4.47298 5.84839 4.73794 5.84839 5.11863V14.6014C5.84839 20.2712 10.4446 24.8674 16.1144 24.8674C21.7841 24.8674 26.3804 20.2712 26.3804 14.6014V5.11863C26.3804 4.73794 26.0021 4.47298 25.6443 4.60308L23.5516 5.36408C22.425 5.77373 21.6751 6.84438 21.6751 8.0431C21.6751 8.83028 21.037 9.46842 20.2498 9.46842H20.178C19.3512 9.46842 18.6809 8.79814 18.6809 7.9713V6.84782C18.6809 6.34003 18.4553 5.85847 18.0652 5.53339L17.7574 5.27687C16.8056 4.48373 15.4231 4.48373 14.4713 5.27687L14.1635 5.53339C13.7734 5.85847 13.5479 6.34003 13.5479 6.84782V7.9713C13.5479 8.79814 12.8776 9.46842 12.0508 9.46842H11.979C11.1918 9.46842 10.5536 8.83028 10.5536 8.0431Z" fill="#251175"/>
<path fill-rule="evenodd" clip-rule="evenodd" d="M23.4703 16.0014C23.6471 16.4396 23.4352 16.9381 22.997 17.1149C18.6753 18.8588 13.8528 18.8972 9.50383 17.2223C9.06292 17.0525 8.84315 16.5574 9.01296 16.1165C9.18276 15.6755 9.67785 15.4558 10.1188 15.6256C14.0631 17.1447 18.4371 17.1099 22.3568 15.5282C22.7949 15.3514 23.2934 15.5633 23.4703 16.0014Z" fill="#FFA5A5"/>
<path d="M39.8107 21.7084C40.7555 21.7084 41.5998 21.549 42.3438 21.2301C43.0996 20.9113 43.7373 20.492 44.2569 19.9724C44.7765 19.441 45.1485 18.8624 45.3729 18.2365L43.2118 17.2268C42.952 17.8881 42.5269 18.4372 41.9364 18.8742C41.3578 19.2993 40.6492 19.5119 39.8107 19.5119C38.9841 19.5119 38.2578 19.317 37.6319 18.9273C37.0061 18.5376 36.516 18.0003 36.1617 17.3153C35.8074 16.6186 35.6303 15.8097 35.6303 14.8885C35.6303 13.9674 35.8074 13.1644 36.1617 12.4795C36.516 11.7827 37.0061 11.2454 37.6319 10.8675C38.2578 10.4778 38.9841 10.2829 39.8107 10.2829C40.6492 10.2829 41.3578 10.5014 41.9364 10.9384C42.5269 11.3635 42.952 11.9067 43.2118 12.568L45.3729 11.5583C45.1485 10.9325 44.7765 10.3597 44.2569 9.8401C43.7373 9.30868 43.0996 8.88355 42.3438 8.5647C41.5998 8.24585 40.7555 8.08643 39.8107 8.08643C38.866 8.08643 37.9921 8.25766 37.1891 8.60013C36.3861 8.93079 35.6893 9.40316 35.0989 10.0172C34.5084 10.6195 34.0478 11.3399 33.7172 12.1783C33.3865 13.005 33.2212 13.9084 33.2212 14.8885C33.2212 15.8687 33.3865 16.778 33.7172 17.6165C34.0478 18.4431 34.5084 19.1635 35.0989 19.7776C35.6893 20.3917 36.3861 20.8699 37.1891 21.2124C37.9921 21.5431 38.866 21.7084 39.8107 21.7084Z" fill="#251175"/>
<path d="M46.3936 21.4958H48.7141V15.8451C48.7141 15.2192 48.8972 14.7173 49.2632 14.3394C49.6293 13.9615 50.0958 13.7726 50.6626 13.7726C51.2295 13.7726 51.6959 13.9615 52.062 14.3394C52.4281 14.7055 52.6112 15.2074 52.6112 15.8451V21.4958H54.9317V15.296C54.9317 14.5756 54.7782 13.9438 54.4711 13.4006C54.1641 12.8455 53.733 12.4145 53.178 12.1075C52.6348 11.8004 52.0089 11.6469 51.3003 11.6469C50.7453 11.6469 50.2434 11.7473 49.7947 11.948C49.3459 12.137 48.9857 12.4263 48.7141 12.816V8.08643H46.3936V21.4958Z" fill="#251175"/>
<path d="M59.4624 21.7084C60.7142 21.7084 61.718 21.2951 62.4738 20.4684V21.4958H64.6703V15.0834C64.6703 14.4103 64.4991 13.8139 64.1566 13.2943C63.8141 12.7747 63.3417 12.3732 62.7395 12.0898C62.149 11.7945 61.4582 11.6469 60.667 11.6469C59.6986 11.6469 58.8365 11.8772 58.0807 12.3378C57.3249 12.7983 56.8053 13.4065 56.5219 14.1623L58.4173 15.0834C58.5944 14.6465 58.872 14.2981 59.2498 14.0383C59.6277 13.7667 60.0706 13.6309 60.5784 13.6309C61.1098 13.6309 61.5349 13.7726 61.8538 14.056C62.1844 14.3276 62.3498 14.6701 62.3498 15.0834V15.4023L59.4801 15.8628C58.3464 16.0518 57.508 16.4119 56.9648 16.9434C56.4215 17.4748 56.1499 18.142 56.1499 18.945C56.1499 19.7953 56.4511 20.4684 57.0533 20.9644C57.6556 21.4604 58.4586 21.7084 59.4624 21.7084ZM58.559 18.8565C58.559 18.1833 59.0137 17.7582 59.923 17.5811L62.3498 17.1736V17.5633C62.3498 18.2247 62.1195 18.7856 61.6589 19.2462C61.2102 19.7067 60.6197 19.937 59.8875 19.937C59.4978 19.937 59.179 19.8425 58.931 19.6536C58.683 19.4528 58.559 19.1871 58.559 18.8565Z" fill="#251175"/>
<path d="M70.6808 21.6021C71.0705 21.6021 71.4543 21.5726 71.8322 21.5135V19.5119C71.6078 19.5473 71.4012 19.565 71.2122 19.565C70.6454 19.565 70.2321 19.4351 69.9723 19.1753C69.7125 18.9155 69.5826 18.5435 69.5826 18.0593V13.932H71.7968V11.8595H69.5826V9.66296H67.262V10.4069C67.262 10.8793 67.1321 11.2395 66.8723 11.4875C66.6125 11.7355 66.2465 11.8595 65.7741 11.8595H65.5969V13.932H67.262V18.1833C67.262 19.258 67.5573 20.0964 68.1477 20.6987C68.75 21.301 69.5944 21.6021 70.6808 21.6021Z" fill="#251175"/>
<path d="M77.7345 21.7084C78.7147 21.7084 79.5709 21.4899 80.303 21.053C81.047 20.6042 81.5666 20.0374 81.8619 19.3524L79.9842 18.4313C79.7716 18.7974 79.4764 19.0985 79.0985 19.3347C78.7324 19.5591 78.2837 19.6713 77.7523 19.6713C77.0555 19.6713 76.4709 19.4587 75.9986 19.0336C75.5262 18.6085 75.2546 18.0416 75.1837 17.3331H82.1276C82.1748 17.2032 82.2043 17.0555 82.2161 16.8902C82.2398 16.7131 82.2516 16.5359 82.2516 16.3588C82.2516 15.4967 82.0685 14.7114 81.7024 14.0029C81.3364 13.2943 80.8049 12.7275 80.1082 12.3023C79.4114 11.8654 78.5612 11.6469 77.5574 11.6469C76.6599 11.6469 75.8451 11.8654 75.1129 12.3023C74.3925 12.7393 73.8198 13.3356 73.3946 14.0914C72.9813 14.8354 72.7747 15.6916 72.7747 16.6599C72.7747 17.5929 72.9813 18.4431 73.3946 19.2107C73.808 19.9783 74.3866 20.5865 75.1306 21.0353C75.8746 21.484 76.7426 21.7084 77.7345 21.7084ZM77.5574 13.56C78.1715 13.56 78.6793 13.749 79.0808 14.1269C79.4941 14.4929 79.7244 14.9712 79.7716 15.5617H75.2369C75.3668 14.924 75.6384 14.4339 76.0517 14.0914C76.4769 13.7371 76.9787 13.56 77.5574 13.56Z" fill="#251175"/>
<path d="M86.5273 21.7084C87.779 21.7084 88.7828 21.2951 89.5386 20.4684V21.4958H91.7351V15.0834C91.7351 14.4103 91.5639 13.8139 91.2214 13.2943C90.879 12.7747 90.4066 12.3732 89.8043 12.0898C89.2139 11.7945 88.523 11.6469 87.7318 11.6469C86.7634 11.6469 85.9014 11.8772 85.1456 12.3378C84.3898 12.7983 83.8702 13.4065 83.5867 14.1623L85.4821 15.0834C85.6593 14.6465 85.9368 14.2981 86.3147 14.0383C86.6926 13.7667 87.1354 13.6309 87.6432 13.6309C88.1746 13.6309 88.5998 13.7726 88.9186 14.056C89.2493 14.3276 89.4146 14.6701 89.4146 15.0834V15.4023L86.545 15.8628C85.4113 16.0518 84.5728 16.4119 84.0296 16.9434C83.4864 17.4748 83.2148 18.142 83.2148 18.945C83.2148 19.7953 83.5159 20.4684 84.1182 20.9644C84.7204 21.4604 85.5235 21.7084 86.5273 21.7084ZM85.6238 18.8565C85.6238 18.1833 86.0785 17.7582 86.9878 17.5811L89.4146 17.1736V17.5633C89.4146 18.2247 89.1843 18.7856 88.7238 19.2462C88.275 19.7067 87.6846 19.937 86.9524 19.937C86.5627 19.937 86.2438 19.8425 85.9958 19.6536C85.7478 19.4528 85.6238 19.1871 85.6238 18.8565Z" fill="#251175"/>
<path d="M96.9621 21.7084C97.5644 21.7084 98.0958 21.5962 98.5564 21.3718C99.0287 21.1356 99.4007 20.7932 99.6723 20.3444V21.4958H101.869V11.8595H99.5483V17.5102C99.5483 18.1479 99.3653 18.6557 98.9992 19.0336C98.6331 19.3997 98.1666 19.5827 97.5998 19.5827C97.0211 19.5827 96.5488 19.3997 96.1827 19.0336C95.8284 18.6675 95.6513 18.1774 95.6513 17.5633V11.8595H93.3308V17.7582C93.3308 18.9391 93.6496 19.8957 94.2873 20.6278C94.9368 21.3482 95.8284 21.7084 96.9621 21.7084Z" fill="#251175"/>
<path d="M102.804 21.4958H105.532L107.551 18.5022L109.553 21.4958H112.263L108.915 16.6599L112.281 11.8595H109.57L107.551 14.8531L105.514 11.8595H102.786L106.169 16.6599L102.804 21.4958Z" fill="#251175"/>
<path d="M116.184 21.4958H120.488C121.882 21.4958 123.092 21.2124 124.12 20.6456C125.159 20.0787 125.962 19.2993 126.529 18.3073C127.096 17.3153 127.379 16.1758 127.379 14.8885C127.379 13.5895 127.096 12.4499 126.529 11.4698C125.962 10.4778 125.165 9.70429 124.137 9.14926C123.11 8.58241 121.894 8.29899 120.488 8.29899H116.184V21.4958ZM118.593 19.3702V10.4247H120.541C121.439 10.4247 122.212 10.6077 122.862 10.9738C123.523 11.3399 124.037 11.8595 124.403 12.5326C124.769 13.1939 124.952 13.9792 124.952 14.8885C124.952 15.7979 124.769 16.5891 124.403 17.2622C124.049 17.9353 123.541 18.4549 122.88 18.821C122.218 19.1871 121.439 19.3702 120.541 19.3702H118.593Z" fill="#251175"/>
<path d="M133.317 21.7084C134.297 21.7084 135.154 21.4899 135.886 21.053C136.63 20.6042 137.149 20.0374 137.445 19.3524L135.567 18.4313C135.354 18.7974 135.059 19.0985 134.681 19.3347C134.315 19.5591 133.866 19.6713 133.335 19.6713C132.638 19.6713 132.054 19.4587 131.581 19.0336C131.109 18.6085 130.837 18.0416 130.767 17.3331H137.71C137.758 17.2032 137.787 17.0555 137.799 16.8902C137.823 16.7131 137.834 16.5359 137.834 16.3588C137.834 15.4967 137.651 14.7114 137.285 14.0029C136.919 13.2943 136.388 12.7275 135.691 12.3023C134.994 11.8654 134.144 11.6469 133.14 11.6469C132.243 11.6469 131.428 11.8654 130.696 12.3023C129.975 12.7393 129.403 13.3356 128.977 14.0914C128.564 14.8354 128.357 15.6916 128.357 16.6599C128.357 17.5929 128.564 18.4431 128.977 19.2107C129.391 19.9783 129.969 20.5865 130.713 21.0353C131.457 21.484 132.325 21.7084 133.317 21.7084ZM133.14 13.56C133.754 13.56 134.262 13.749 134.664 14.1269C135.077 14.4929 135.307 14.9712 135.354 15.5617H130.82C130.95 14.924 131.221 14.4339 131.635 14.0914C132.06 13.7371 132.562 13.56 133.14 13.56Z" fill="#251175"/>
<path d="M140.336 12.7963C140.321 12.7967 140.305 12.7969 140.289 12.7969C139.268 12.7969 138.44 12.01 138.44 11.0394C138.44 10.0688 139.268 9.28198 140.289 9.28198C141.278 9.28198 142.085 10.0193 142.136 10.9469H142.138C142.229 13.0491 140.933 14.0486 139.715 14.0486C139.715 14.0486 140.229 13.4157 140.336 12.7963Z" fill="#251175"/>
</svg>
