<svg width="184" height="94" viewBox="0 0 184 94" fill="none" xmlns="http://www.w3.org/2000/svg">
<rect y="42" width="138" height="40" rx="8" fill="#4A369B"/>
<path d="M12.585 68H13.23C13.97 68 14.61 67.855 15.15 67.565C15.7 67.275 16.12 66.87 16.41 66.35C16.71 65.83 16.86 65.225 16.86 64.535V56.825H14.805V64.61C14.805 65.07 14.66 65.44 14.37 65.72C14.09 65.99 13.71 66.125 13.23 66.125H12.585V68ZM22.7937 68.18C23.5837 68.18 24.3037 68 24.9537 67.64C25.6037 67.27 26.1237 66.765 26.5137 66.125C26.9037 65.475 27.0987 64.74 27.0987 63.92C27.0987 63.1 26.9037 62.37 26.5137 61.73C26.1337 61.09 25.6187 60.585 24.9687 60.215C24.3187 59.845 23.5937 59.66 22.7937 59.66C21.9837 59.66 21.2537 59.845 20.6037 60.215C19.9537 60.585 19.4337 61.09 19.0437 61.73C18.6637 62.37 18.4737 63.1 18.4737 63.92C18.4737 64.74 18.6637 65.47 19.0437 66.11C19.4337 66.75 19.9537 67.255 20.6037 67.625C21.2637 67.995 21.9937 68.18 22.7937 68.18ZM22.7937 66.38C22.3537 66.38 21.9587 66.275 21.6087 66.065C21.2687 65.855 20.9987 65.565 20.7987 65.195C20.6087 64.815 20.5137 64.39 20.5137 63.92C20.5137 63.45 20.6087 63.03 20.7987 62.66C20.9987 62.29 21.2687 62 21.6087 61.79C21.9587 61.57 22.3537 61.46 22.7937 61.46C23.2337 61.46 23.6187 61.57 23.9487 61.79C24.2887 62 24.5537 62.29 24.7437 62.66C24.9437 63.03 25.0437 63.45 25.0437 63.92C25.0437 64.39 24.9437 64.815 24.7437 65.195C24.5537 65.565 24.2887 65.855 23.9487 66.065C23.6187 66.275 23.2337 66.38 22.7937 66.38ZM28.5888 58.925H30.5538V56.825H28.5888V58.925ZM28.5888 68H30.5538V59.84H28.5888V68ZM32.3681 68H34.3331V63.215C34.3331 62.685 34.4831 62.26 34.7831 61.94C35.0931 61.62 35.4931 61.46 35.9831 61.46C36.4731 61.46 36.8681 61.62 37.1681 61.94C37.4781 62.25 37.6331 62.675 37.6331 63.215V68H39.5981V62.75C39.5981 62.14 39.4681 61.605 39.2081 61.145C38.9481 60.675 38.5831 60.31 38.1131 60.05C37.6531 59.79 37.1231 59.66 36.5231 59.66C36.0131 59.66 35.5531 59.76 35.1431 59.96C34.7431 60.16 34.4331 60.455 34.2131 60.845V59.84H32.3681V68ZM47.9157 68.18C48.7057 68.18 49.4257 68 50.0757 67.64C50.7257 67.27 51.2457 66.765 51.6357 66.125C52.0257 65.475 52.2207 64.74 52.2207 63.92C52.2207 63.1 52.0257 62.37 51.6357 61.73C51.2557 61.09 50.7407 60.585 50.0907 60.215C49.4407 59.845 48.7157 59.66 47.9157 59.66C47.1057 59.66 46.3757 59.845 45.7257 60.215C45.0757 60.585 44.5557 61.09 44.1657 61.73C43.7857 62.37 43.5957 63.1 43.5957 63.92C43.5957 64.74 43.7857 65.47 44.1657 66.11C44.5557 66.75 45.0757 67.255 45.7257 67.625C46.3857 67.995 47.1157 68.18 47.9157 68.18ZM47.9157 66.38C47.4757 66.38 47.0807 66.275 46.7307 66.065C46.3907 65.855 46.1207 65.565 45.9207 65.195C45.7307 64.815 45.6357 64.39 45.6357 63.92C45.6357 63.45 45.7307 63.03 45.9207 62.66C46.1207 62.29 46.3907 62 46.7307 61.79C47.0807 61.57 47.4757 61.46 47.9157 61.46C48.3557 61.46 48.7407 61.57 49.0707 61.79C49.4107 62 49.6757 62.29 49.8657 62.66C50.0657 63.03 50.1657 63.45 50.1657 63.92C50.1657 64.39 50.0657 64.815 49.8657 65.195C49.6757 65.565 49.4107 65.855 49.0707 66.065C48.7407 66.275 48.3557 66.38 47.9157 66.38ZM56.6209 68.18C57.1309 68.18 57.5809 68.085 57.9709 67.895C58.3709 67.695 58.6859 67.405 58.9159 67.025V68H60.7759V59.84H58.8109V64.625C58.8109 65.165 58.6559 65.595 58.3459 65.915C58.0359 66.225 57.6409 66.38 57.1609 66.38C56.6709 66.38 56.2709 66.225 55.9609 65.915C55.6609 65.605 55.5109 65.19 55.5109 64.67V59.84H53.5459V64.835C53.5459 65.835 53.8159 66.645 54.3559 67.265C54.9059 67.875 55.6609 68.18 56.6209 68.18ZM62.6025 68H64.5675V63.455C64.5675 62.835 64.7375 62.355 65.0775 62.015C65.4275 61.665 65.8775 61.49 66.4275 61.49H67.1325V59.75H66.6525C66.1525 59.75 65.7125 59.84 65.3325 60.02C64.9525 60.2 64.6575 60.525 64.4475 60.995V59.84H62.6025V68ZM72.9339 68H74.6739L76.5939 62.495L78.4839 68H80.2389L83.0439 59.84H80.9739L79.2639 64.97L77.4639 59.84H75.7239L73.9089 64.985L72.1989 59.84H70.1289L72.9339 68ZM86.3031 68.18C87.3631 68.18 88.2131 67.83 88.8531 67.13V68H90.7131V62.57C90.7131 62 90.5681 61.495 90.2781 61.055C89.9881 60.615 89.5881 60.275 89.0781 60.035C88.5781 59.785 87.9931 59.66 87.3231 59.66C86.5031 59.66 85.7731 59.855 85.1331 60.245C84.4931 60.635 84.0531 61.15 83.8131 61.79L85.4181 62.57C85.5681 62.2 85.8031 61.905 86.1231 61.685C86.4431 61.455 86.8181 61.34 87.2481 61.34C87.6981 61.34 88.0581 61.46 88.3281 61.7C88.6081 61.93 88.7481 62.22 88.7481 62.57V62.84L86.3181 63.23C85.3581 63.39 84.6481 63.695 84.1881 64.145C83.7281 64.595 83.4981 65.16 83.4981 65.84C83.4981 66.56 83.7531 67.13 84.2631 67.55C84.7731 67.97 85.4531 68.18 86.3031 68.18ZM85.5381 65.765C85.5381 65.195 85.9231 64.835 86.6931 64.685L88.7481 64.34V64.67C88.7481 65.23 88.5531 65.705 88.1631 66.095C87.7831 66.485 87.2831 66.68 86.6631 66.68C86.3331 66.68 86.0631 66.6 85.8531 66.44C85.6431 66.27 85.5381 66.045 85.5381 65.765ZM92.5293 58.925H94.4943V56.825H92.5293V58.925ZM92.5293 68H94.4943V59.84H92.5293V68ZM100.029 68.09C100.359 68.09 100.684 68.065 101.004 68.015V66.32C100.814 66.35 100.639 66.365 100.479 66.365C99.9986 66.365 99.6486 66.255 99.4286 66.035C99.2086 65.815 99.0986 65.5 99.0986 65.09V61.595H100.974V59.84H99.0986V57.98H97.1336V58.61C97.1336 59.01 97.0236 59.315 96.8036 59.525C96.5836 59.735 96.2736 59.84 95.8736 59.84H95.7236V61.595H97.1336V65.195C97.1336 66.105 97.3836 66.815 97.8836 67.325C98.3936 67.835 99.1086 68.09 100.029 68.09ZM105.171 68H107.136V56.645H105.171V68ZM108.95 58.925H110.915V56.825H108.95V58.925ZM108.95 68H110.915V59.84H108.95V68ZM115.834 68.18C116.454 68.18 116.994 68.075 117.454 67.865C117.914 67.655 118.274 67.365 118.534 66.995C118.794 66.615 118.924 66.18 118.924 65.69C118.924 65.12 118.744 64.63 118.384 64.22C118.024 63.81 117.504 63.51 116.824 63.32L115.519 62.93C115.239 62.85 115.009 62.745 114.829 62.615C114.649 62.485 114.559 62.305 114.559 62.075C114.559 61.835 114.654 61.64 114.844 61.49C115.034 61.34 115.294 61.265 115.624 61.265C116.034 61.265 116.404 61.375 116.734 61.595C117.074 61.815 117.309 62.11 117.439 62.48L118.939 61.775C118.689 61.115 118.269 60.6 117.679 60.23C117.089 59.85 116.409 59.66 115.639 59.66C115.049 59.66 114.524 59.765 114.064 59.975C113.614 60.185 113.259 60.48 112.999 60.86C112.749 61.23 112.624 61.665 112.624 62.165C112.624 62.725 112.799 63.21 113.149 63.62C113.509 64.03 114.034 64.335 114.724 64.535L116.059 64.91C116.319 64.98 116.539 65.085 116.719 65.225C116.909 65.355 117.004 65.535 117.004 65.765C117.004 66.035 116.894 66.25 116.674 66.41C116.464 66.56 116.184 66.635 115.834 66.635C115.374 66.635 114.959 66.505 114.589 66.245C114.219 65.985 113.924 65.625 113.704 65.165L112.234 65.87C112.474 66.57 112.914 67.13 113.554 67.55C114.204 67.97 114.964 68.18 115.834 68.18ZM124.155 68.09C124.485 68.09 124.81 68.065 125.13 68.015V66.32C124.94 66.35 124.765 66.365 124.605 66.365C124.125 66.365 123.775 66.255 123.555 66.035C123.335 65.815 123.225 65.5 123.225 65.09V61.595H125.1V59.84H123.225V57.98H121.26V58.61C121.26 59.01 121.15 59.315 120.93 59.525C120.71 59.735 120.4 59.84 120 59.84H119.85V61.595H121.26V65.195C121.26 66.105 121.51 66.815 122.01 67.325C122.52 67.835 123.235 68.09 124.155 68.09Z" fill="white"/>
<path d="M67.2679 91C68.0377 92.3333 69.9622 92.3333 70.732 91L75.9282 82H62.0718L67.2679 91Z" fill="#4A369B"/>
<g filter="url(#filter0_dd)">
<rect x="124" y="28" width="28" height="28" rx="14" fill="white"/>
<path d="M143.333 36.6667H132.667C131.931 36.6667 131.333 37.2641 131.333 38.0001V46.0001C131.333 46.7361 131.931 47.3334 132.667 47.3334H143.333C144.069 47.3334 144.667 46.7361 144.667 46.0001V38.0001C144.667 37.2641 144.069 36.6667 143.333 36.6667ZM143.333 39.8001L138 43.3561L132.667 39.8001V38.1981L138 41.7534L143.333 38.1981V39.8001Z" fill="#D13661"/>
</g>
<defs>
<filter id="filter0_dd" x="92" y="0" width="92" height="92" filterUnits="userSpaceOnUse" color-interpolation-filters="sRGB">
<feFlood flood-opacity="0" result="BackgroundImageFix"/>
<feColorMatrix in="SourceAlpha" type="matrix" values="0 0 0 0 0 0 0 0 0 0 0 0 0 0 0 0 0 0 127 0"/>
<feOffset dy="4"/>
<feGaussianBlur stdDeviation="6"/>
<feColorMatrix type="matrix" values="0 0 0 0 0 0 0 0 0 0 0 0 0 0 0 0 0 0 0.15 0"/>
<feBlend mode="normal" in2="BackgroundImageFix" result="effect1_dropShadow"/>
<feColorMatrix in="SourceAlpha" type="matrix" values="0 0 0 0 0 0 0 0 0 0 0 0 0 0 0 0 0 0 127 0"/>
<feOffset dy="4"/>
<feGaussianBlur stdDeviation="16"/>
<feColorMatrix type="matrix" values="0 0 0 0 0 0 0 0 0 0 0 0 0 0 0 0 0 0 0.1 0"/>
<feBlend mode="normal" in2="effect1_dropShadow" result="effect2_dropShadow"/>
<feBlend mode="normal" in="SourceGraphic" in2="effect2_dropShadow" result="shape"/>
</filter>
</defs>
</svg>
